# xmcd
#
# Track frame offsets: 
#        150
#        18353
#        37268
#        55445
#        73024
#        98071
#        112287
#        129840
#        149922
#        166796
#
# Disc length: 2495 seconds
#
# Revision: 0
# Processed by: cddbd v1.5PL3 Copyright (c) Steve Scherf et al.
# Submitted via: ExactAudioCopy v0.95a4
#
DISCID=9509bd0a
DTITLE=Megan Lane and Deep Set Sout - Purple and Blue
DYEAR=2003
DGENRE=Blues
TTITLE0=Lost In Love
TTITLE1=Just Like Me
TTITLE2=Walking Alone
TTITLE3=My Heart
TTITLE4=Always Will
TTITLE5=One Word
TTITLE6=The War Song
TTITLE7=The Clock
TTITLE8=Mother
TTITLE9=The New Messiah
EXTD=All songs wirtten by Megan Lane except Track #10 -  "The New Mess
EXTD=iah" written by Jon Levine\nMegan Lane - All guitars and vocals\n
EXTD=Dai Kobayashi - Bass Guitar\nJoe Dickson - Drums (tracks 3, 4, 5,
EXTD=8, 9]\nBruce Lemky - Drums (tracks 1, 2, 6) - Percussion (tracks 
EXTD=1, 5, 6]\nJosh Palmer - Additional vocals (track 1]\n\nProduced b
EXTD=y Megan Lane\nRecorded at Audio Art Recording, Saskatoon, Saskatc
EXTD=hewan, Canada\nEngineered by Glen Ens\nMixed by Glen Ens and Mega
EXTD=n Lane\nMastered by Glen Ens
EXTT0=
EXTT1=
EXTT2=
EXTT3=
EXTT4=
EXTT5=
EXTT6=
EXTT7=
EXTT8=
EXTT9=
PLAYORDER=
